<mxfile host="app.diagrams.net" modified="2024-05-09T00:00:57.772Z" agent="Mozilla/5.0 (Windows NT 10.0; Win64; x64) AppleWebKit/537.36 (KHTML, like Gecko) Chrome/124.0.0.0 Safari/537.36" etag="uNotDVRn7EgV_W5cRo-3" version="24.3.1" type="device">
  <diagram id="C5RBs43oDa-KdzZeNtuy" name="Page-1">
    <mxGraphModel dx="1050" dy="557" grid="1" gridSize="10" guides="1" tooltips="1" connect="1" arrows="1" fold="1" page="1" pageScale="1" pageWidth="827" pageHeight="1169" math="0" shadow="0">
      <root>
        <mxCell id="WIyWlLk6GJQsqaUBKTNV-0" />
        <mxCell id="WIyWlLk6GJQsqaUBKTNV-1" parent="WIyWlLk6GJQsqaUBKTNV-0" />
        <mxCell id="8x5oocqOoXGV-sWFzn2n-2" style="edgeStyle=orthogonalEdgeStyle;rounded=0;orthogonalLoop=1;jettySize=auto;html=1;exitX=0.5;exitY=1;exitDx=0;exitDy=0;" parent="WIyWlLk6GJQsqaUBKTNV-1" source="8x5oocqOoXGV-sWFzn2n-0" edge="1">
          <mxGeometry relative="1" as="geometry">
            <mxPoint x="390" y="90" as="targetPoint" />
          </mxGeometry>
        </mxCell>
        <mxCell id="8x5oocqOoXGV-sWFzn2n-0" value="Inicio" style="ellipse;whiteSpace=wrap;html=1;" parent="WIyWlLk6GJQsqaUBKTNV-1" vertex="1">
          <mxGeometry x="340" y="10" width="100" height="50" as="geometry" />
        </mxCell>
        <mxCell id="8x5oocqOoXGV-sWFzn2n-4" style="edgeStyle=orthogonalEdgeStyle;rounded=0;orthogonalLoop=1;jettySize=auto;html=1;exitX=0.5;exitY=1;exitDx=0;exitDy=0;entryX=0.5;entryY=0;entryDx=0;entryDy=0;" parent="WIyWlLk6GJQsqaUBKTNV-1" target="8x5oocqOoXGV-sWFzn2n-3" edge="1">
          <mxGeometry relative="1" as="geometry">
            <mxPoint x="390" y="150" as="sourcePoint" />
          </mxGeometry>
        </mxCell>
        <mxCell id="8x5oocqOoXGV-sWFzn2n-8" style="edgeStyle=orthogonalEdgeStyle;rounded=0;orthogonalLoop=1;jettySize=auto;html=1;exitX=0;exitY=0.5;exitDx=0;exitDy=0;entryX=1;entryY=0.5;entryDx=0;entryDy=0;" parent="WIyWlLk6GJQsqaUBKTNV-1" source="8x5oocqOoXGV-sWFzn2n-3" edge="1">
          <mxGeometry relative="1" as="geometry">
            <mxPoint x="280" y="235" as="targetPoint" />
          </mxGeometry>
        </mxCell>
        <mxCell id="8x5oocqOoXGV-sWFzn2n-9" style="edgeStyle=orthogonalEdgeStyle;rounded=0;orthogonalLoop=1;jettySize=auto;html=1;exitX=1;exitY=0.5;exitDx=0;exitDy=0;entryX=0;entryY=0.5;entryDx=0;entryDy=0;" parent="WIyWlLk6GJQsqaUBKTNV-1" source="8x5oocqOoXGV-sWFzn2n-3" edge="1">
          <mxGeometry relative="1" as="geometry">
            <mxPoint x="500" y="235" as="targetPoint" />
          </mxGeometry>
        </mxCell>
        <mxCell id="8x5oocqOoXGV-sWFzn2n-3" value="number == cf" style="rhombus;whiteSpace=wrap;html=1;" parent="WIyWlLk6GJQsqaUBKTNV-1" vertex="1">
          <mxGeometry x="340" y="190" width="100" height="90" as="geometry" />
        </mxCell>
        <mxCell id="8x5oocqOoXGV-sWFzn2n-10" value="Si" style="text;html=1;align=center;verticalAlign=middle;resizable=0;points=[];autosize=1;strokeColor=none;fillColor=none;" parent="WIyWlLk6GJQsqaUBKTNV-1" vertex="1">
          <mxGeometry x="445" y="208" width="30" height="30" as="geometry" />
        </mxCell>
        <mxCell id="8x5oocqOoXGV-sWFzn2n-11" value="No" style="text;html=1;align=center;verticalAlign=middle;resizable=0;points=[];autosize=1;strokeColor=none;fillColor=none;" parent="WIyWlLk6GJQsqaUBKTNV-1" vertex="1">
          <mxGeometry x="300" y="210" width="40" height="30" as="geometry" />
        </mxCell>
        <mxCell id="8x5oocqOoXGV-sWFzn2n-12" value="Fin" style="ellipse;whiteSpace=wrap;html=1;" parent="WIyWlLk6GJQsqaUBKTNV-1" vertex="1">
          <mxGeometry x="330" y="300" width="120" height="80" as="geometry" />
        </mxCell>
        <mxCell id="ejR7P1TldSKDufJ4Tk2V-0" value="Crear variable cf&amp;nbsp;&lt;div&gt;y darle un valor de&lt;/div&gt;&lt;div&gt;11235813&lt;/div&gt;" style="rounded=0;whiteSpace=wrap;html=1;" vertex="1" parent="WIyWlLk6GJQsqaUBKTNV-1">
          <mxGeometry x="330" y="90" width="120" height="60" as="geometry" />
        </mxCell>
        <mxCell id="ejR7P1TldSKDufJ4Tk2V-2" style="edgeStyle=orthogonalEdgeStyle;rounded=0;orthogonalLoop=1;jettySize=auto;html=1;exitX=0.5;exitY=1;exitDx=0;exitDy=0;entryX=1;entryY=0.5;entryDx=0;entryDy=0;" edge="1" parent="WIyWlLk6GJQsqaUBKTNV-1" source="ejR7P1TldSKDufJ4Tk2V-1" target="8x5oocqOoXGV-sWFzn2n-12">
          <mxGeometry relative="1" as="geometry" />
        </mxCell>
        <mxCell id="ejR7P1TldSKDufJ4Tk2V-1" value="Devolver&amp;nbsp;&amp;nbsp;&quot;Se encontro a Fibonacci&quot;" style="shape=parallelogram;perimeter=parallelogramPerimeter;whiteSpace=wrap;html=1;fixedSize=1;" vertex="1" parent="WIyWlLk6GJQsqaUBKTNV-1">
          <mxGeometry x="490" y="205" width="170" height="55" as="geometry" />
        </mxCell>
        <mxCell id="ejR7P1TldSKDufJ4Tk2V-5" style="edgeStyle=orthogonalEdgeStyle;rounded=0;orthogonalLoop=1;jettySize=auto;html=1;exitX=0.5;exitY=1;exitDx=0;exitDy=0;entryX=0;entryY=0.5;entryDx=0;entryDy=0;" edge="1" parent="WIyWlLk6GJQsqaUBKTNV-1" source="ejR7P1TldSKDufJ4Tk2V-4" target="8x5oocqOoXGV-sWFzn2n-12">
          <mxGeometry relative="1" as="geometry" />
        </mxCell>
        <mxCell id="ejR7P1TldSKDufJ4Tk2V-4" value="Devolver&amp;nbsp;&quot;Esto no es de Fibonacci&quot;" style="shape=parallelogram;perimeter=parallelogramPerimeter;whiteSpace=wrap;html=1;fixedSize=1;" vertex="1" parent="WIyWlLk6GJQsqaUBKTNV-1">
          <mxGeometry x="130" y="210" width="160" height="55" as="geometry" />
        </mxCell>
      </root>
    </mxGraphModel>
  </diagram>
</mxfile>
